<mxfile host="app.diagrams.net" agent="Mozilla/5.0 (Windows NT 10.0; Win64; x64) AppleWebKit/537.36 (KHTML, like Gecko) Chrome/132.0.0.0 Safari/537.36 OPR/117.0.0.0" version="26.1.1">
  <diagram name="Page-1" id="S3JEhDmgDfEfVkKlD6f0">
    <mxGraphModel dx="1221" dy="783" grid="1" gridSize="10" guides="1" tooltips="1" connect="1" arrows="1" fold="1" page="1" pageScale="1" pageWidth="827" pageHeight="1169" math="0" shadow="0">
      <root>
        <mxCell id="0" />
        <mxCell id="1" parent="0" />
        <mxCell id="GRK80DV1OH4X8ZZ0KBeD-1" value="" style="rounded=0;whiteSpace=wrap;html=1;" vertex="1" parent="1">
          <mxGeometry x="260" y="170" width="10" height="10" as="geometry" />
        </mxCell>
        <mxCell id="GRK80DV1OH4X8ZZ0KBeD-2" value="" style="rounded=0;whiteSpace=wrap;html=1;" vertex="1" parent="1">
          <mxGeometry x="260" y="230" width="10" height="10" as="geometry" />
        </mxCell>
        <mxCell id="GRK80DV1OH4X8ZZ0KBeD-3" value="ZatraÅ¾iti oglase" style="rounded=1;whiteSpace=wrap;html=1;" vertex="1" parent="1">
          <mxGeometry x="400" y="150" width="120" height="105" as="geometry" />
        </mxCell>
        <mxCell id="GRK80DV1OH4X8ZZ0KBeD-4" value="" style="endArrow=classic;html=1;rounded=0;exitX=1;exitY=0.5;exitDx=0;exitDy=0;entryX=0;entryY=0.25;entryDx=0;entryDy=0;" edge="1" parent="1" source="GRK80DV1OH4X8ZZ0KBeD-1" target="GRK80DV1OH4X8ZZ0KBeD-3">
          <mxGeometry width="50" height="50" relative="1" as="geometry">
            <mxPoint x="390" y="430" as="sourcePoint" />
            <mxPoint x="440" y="380" as="targetPoint" />
          </mxGeometry>
        </mxCell>
        <mxCell id="GRK80DV1OH4X8ZZ0KBeD-5" value="" style="endArrow=classic;html=1;rounded=0;exitX=0;exitY=0.75;exitDx=0;exitDy=0;entryX=1;entryY=0.25;entryDx=0;entryDy=0;" edge="1" parent="1" source="GRK80DV1OH4X8ZZ0KBeD-3" target="GRK80DV1OH4X8ZZ0KBeD-2">
          <mxGeometry width="50" height="50" relative="1" as="geometry">
            <mxPoint x="390" y="430" as="sourcePoint" />
            <mxPoint x="440" y="380" as="targetPoint" />
          </mxGeometry>
        </mxCell>
        <mxCell id="GRK80DV1OH4X8ZZ0KBeD-6" value="" style="endArrow=none;html=1;rounded=0;exitX=0;exitY=0.25;exitDx=0;exitDy=0;entryX=1;entryY=0.25;entryDx=0;entryDy=0;" edge="1" parent="1" source="GRK80DV1OH4X8ZZ0KBeD-3" target="GRK80DV1OH4X8ZZ0KBeD-3">
          <mxGeometry width="50" height="50" relative="1" as="geometry">
            <mxPoint x="436" y="430" as="sourcePoint" />
            <mxPoint x="486" y="380" as="targetPoint" />
          </mxGeometry>
        </mxCell>
        <mxCell id="GRK80DV1OH4X8ZZ0KBeD-7" value="P4.1" style="text;html=1;align=center;verticalAlign=middle;whiteSpace=wrap;rounded=0;" vertex="1" parent="1">
          <mxGeometry x="426" y="150" width="60" height="30" as="geometry" />
        </mxCell>
        <mxCell id="GRK80DV1OH4X8ZZ0KBeD-8" value="Zahtjev za pregled oglasa" style="text;html=1;align=center;verticalAlign=middle;whiteSpace=wrap;rounded=0;" vertex="1" parent="1">
          <mxGeometry x="293" y="140" width="100" height="30" as="geometry" />
        </mxCell>
        <mxCell id="GRK80DV1OH4X8ZZ0KBeD-9" value="oglasi" style="text;html=1;align=center;verticalAlign=middle;whiteSpace=wrap;rounded=0;" vertex="1" parent="1">
          <mxGeometry x="307" y="200" width="86" height="30" as="geometry" />
        </mxCell>
        <mxCell id="GRK80DV1OH4X8ZZ0KBeD-15" value="Oglas" style="rounded=0;whiteSpace=wrap;html=1;" vertex="1" parent="1">
          <mxGeometry x="610" y="507.5" width="120" height="30" as="geometry" />
        </mxCell>
        <mxCell id="GRK80DV1OH4X8ZZ0KBeD-16" value="" style="endArrow=none;html=1;rounded=0;entryX=0.25;entryY=0;entryDx=0;entryDy=0;exitX=0.25;exitY=1;exitDx=0;exitDy=0;" edge="1" parent="1" source="GRK80DV1OH4X8ZZ0KBeD-15" target="GRK80DV1OH4X8ZZ0KBeD-15">
          <mxGeometry width="50" height="50" relative="1" as="geometry">
            <mxPoint x="750" y="457.5" as="sourcePoint" />
            <mxPoint x="720" y="317.5" as="targetPoint" />
          </mxGeometry>
        </mxCell>
        <mxCell id="GRK80DV1OH4X8ZZ0KBeD-17" value="D2" style="text;html=1;align=center;verticalAlign=middle;whiteSpace=wrap;rounded=0;" vertex="1" parent="1">
          <mxGeometry x="600" y="507.5" width="60" height="30" as="geometry" />
        </mxCell>
        <mxCell id="GRK80DV1OH4X8ZZ0KBeD-19" value="Rangiranje pretrage" style="rounded=1;whiteSpace=wrap;html=1;" vertex="1" parent="1">
          <mxGeometry x="400" y="310" width="120" height="105" as="geometry" />
        </mxCell>
        <mxCell id="GRK80DV1OH4X8ZZ0KBeD-20" value="" style="endArrow=none;html=1;rounded=0;exitX=0;exitY=0.25;exitDx=0;exitDy=0;entryX=1;entryY=0.25;entryDx=0;entryDy=0;" edge="1" parent="1" source="GRK80DV1OH4X8ZZ0KBeD-19" target="GRK80DV1OH4X8ZZ0KBeD-19">
          <mxGeometry width="50" height="50" relative="1" as="geometry">
            <mxPoint x="436" y="590" as="sourcePoint" />
            <mxPoint x="486" y="540" as="targetPoint" />
          </mxGeometry>
        </mxCell>
        <mxCell id="GRK80DV1OH4X8ZZ0KBeD-21" value="P4.2" style="text;html=1;align=center;verticalAlign=middle;whiteSpace=wrap;rounded=0;" vertex="1" parent="1">
          <mxGeometry x="426" y="310" width="60" height="30" as="geometry" />
        </mxCell>
        <mxCell id="GRK80DV1OH4X8ZZ0KBeD-22" value="Filtriranje pretrage" style="rounded=1;whiteSpace=wrap;html=1;" vertex="1" parent="1">
          <mxGeometry x="400" y="470" width="120" height="105" as="geometry" />
        </mxCell>
        <mxCell id="GRK80DV1OH4X8ZZ0KBeD-23" value="" style="endArrow=none;html=1;rounded=0;exitX=0;exitY=0.25;exitDx=0;exitDy=0;entryX=1;entryY=0.25;entryDx=0;entryDy=0;" edge="1" parent="1" source="GRK80DV1OH4X8ZZ0KBeD-22" target="GRK80DV1OH4X8ZZ0KBeD-22">
          <mxGeometry width="50" height="50" relative="1" as="geometry">
            <mxPoint x="436" y="750" as="sourcePoint" />
            <mxPoint x="486" y="700" as="targetPoint" />
          </mxGeometry>
        </mxCell>
        <mxCell id="GRK80DV1OH4X8ZZ0KBeD-24" value="P4.3" style="text;html=1;align=center;verticalAlign=middle;whiteSpace=wrap;rounded=0;" vertex="1" parent="1">
          <mxGeometry x="426" y="470" width="60" height="30" as="geometry" />
        </mxCell>
        <mxCell id="GRK80DV1OH4X8ZZ0KBeD-25" value="" style="endArrow=classic;html=1;rounded=0;exitX=0.167;exitY=0.667;exitDx=0;exitDy=0;exitPerimeter=0;entryX=1;entryY=0.5;entryDx=0;entryDy=0;" edge="1" parent="1" source="GRK80DV1OH4X8ZZ0KBeD-17" target="GRK80DV1OH4X8ZZ0KBeD-22">
          <mxGeometry width="50" height="50" relative="1" as="geometry">
            <mxPoint x="390" y="430" as="sourcePoint" />
            <mxPoint x="440" y="380" as="targetPoint" />
          </mxGeometry>
        </mxCell>
        <mxCell id="GRK80DV1OH4X8ZZ0KBeD-26" value="Oglasi" style="text;html=1;align=center;verticalAlign=middle;whiteSpace=wrap;rounded=0;" vertex="1" parent="1">
          <mxGeometry x="540" y="500" width="60" height="30" as="geometry" />
        </mxCell>
        <mxCell id="GRK80DV1OH4X8ZZ0KBeD-27" value="" style="endArrow=classic;html=1;rounded=0;exitX=0.75;exitY=1;exitDx=0;exitDy=0;entryX=0.75;entryY=0;entryDx=0;entryDy=0;" edge="1" parent="1" source="GRK80DV1OH4X8ZZ0KBeD-3" target="GRK80DV1OH4X8ZZ0KBeD-19">
          <mxGeometry width="50" height="50" relative="1" as="geometry">
            <mxPoint x="390" y="430" as="sourcePoint" />
            <mxPoint x="440" y="380" as="targetPoint" />
          </mxGeometry>
        </mxCell>
        <mxCell id="GRK80DV1OH4X8ZZ0KBeD-28" value="" style="endArrow=classic;html=1;rounded=0;exitX=0.192;exitY=-0.016;exitDx=0;exitDy=0;exitPerimeter=0;entryX=0.186;entryY=0.981;entryDx=0;entryDy=0;entryPerimeter=0;" edge="1" parent="1" source="GRK80DV1OH4X8ZZ0KBeD-19" target="GRK80DV1OH4X8ZZ0KBeD-3">
          <mxGeometry width="50" height="50" relative="1" as="geometry">
            <mxPoint x="420" y="310" as="sourcePoint" />
            <mxPoint x="423" y="260" as="targetPoint" />
          </mxGeometry>
        </mxCell>
        <mxCell id="GRK80DV1OH4X8ZZ0KBeD-29" value="" style="endArrow=classic;html=1;rounded=0;exitX=0.75;exitY=1;exitDx=0;exitDy=0;entryX=0.75;entryY=0;entryDx=0;entryDy=0;" edge="1" parent="1" source="GRK80DV1OH4X8ZZ0KBeD-19" target="GRK80DV1OH4X8ZZ0KBeD-22">
          <mxGeometry width="50" height="50" relative="1" as="geometry">
            <mxPoint x="390" y="430" as="sourcePoint" />
            <mxPoint x="440" y="380" as="targetPoint" />
          </mxGeometry>
        </mxCell>
        <mxCell id="GRK80DV1OH4X8ZZ0KBeD-30" value="" style="endArrow=classic;html=1;rounded=0;exitX=0.186;exitY=0.016;exitDx=0;exitDy=0;entryX=0.192;entryY=0.981;entryDx=0;entryDy=0;entryPerimeter=0;exitPerimeter=0;" edge="1" parent="1" source="GRK80DV1OH4X8ZZ0KBeD-22" target="GRK80DV1OH4X8ZZ0KBeD-19">
          <mxGeometry width="50" height="50" relative="1" as="geometry">
            <mxPoint x="390" y="430" as="sourcePoint" />
            <mxPoint x="440" y="380" as="targetPoint" />
          </mxGeometry>
        </mxCell>
        <mxCell id="GRK80DV1OH4X8ZZ0KBeD-31" value="Informacija pretrage" style="text;html=1;align=center;verticalAlign=middle;whiteSpace=wrap;rounded=0;" vertex="1" parent="1">
          <mxGeometry x="490" y="270" width="60" height="30" as="geometry" />
        </mxCell>
        <mxCell id="GRK80DV1OH4X8ZZ0KBeD-32" value="Filteri pretrage" style="text;html=1;align=center;verticalAlign=middle;whiteSpace=wrap;rounded=0;" vertex="1" parent="1">
          <mxGeometry x="490" y="420" width="60" height="30" as="geometry" />
        </mxCell>
        <mxCell id="GRK80DV1OH4X8ZZ0KBeD-33" value="Filtrirani oglasi" style="text;html=1;align=center;verticalAlign=middle;whiteSpace=wrap;rounded=0;" vertex="1" parent="1">
          <mxGeometry x="366" y="430" width="60" height="30" as="geometry" />
        </mxCell>
        <mxCell id="GRK80DV1OH4X8ZZ0KBeD-34" value="Rangirani oglasi" style="text;html=1;align=center;verticalAlign=middle;whiteSpace=wrap;rounded=0;" vertex="1" parent="1">
          <mxGeometry x="366" y="270" width="60" height="30" as="geometry" />
        </mxCell>
      </root>
    </mxGraphModel>
  </diagram>
</mxfile>
